<?xml version="1.0" encoding="UTF-8"?>
<!-- Generator: Adobe Illustrator 21.0.0, SVG Export Plug-In . SVG Version: 6.00 Build 0)  -->
<svg version="1.1" id="Layer_1" xmlns="http://www.w3.org/2000/svg" xmlns:xlink="http://www.w3.org/1999/xlink" x="0px" y="0px" viewBox="0 0 85 85" style="enable-background:new 0 0 85 85;" xml:space="preserve">
<style type="text/css">
	.st0{fill:none;stroke:#00B8B5;stroke-linecap:round;stroke-linejoin:round;stroke-miterlimit:10;}
</style>
<line class="st0" x1="25.3" y1="65.9" x2="25.3" y2="69"/>
<line class="st0" x1="23.8" y1="67.5" x2="26.8" y2="67.5"/>
<path class="st0" d="M56.7,70c-0.2,0-0.3,0-0.5,0H33.4c-2.3,0-4.2-1.9-4.2-4.2l0-46.4c0-2.3,1.9-4.2,4.2-4.2h22.7  c2.3,0,4.2,1.9,4.2,4.2l0,43.5"/>
<circle class="st0" cx="44.8" cy="66.1" r="2.1"/>
<line class="st0" x1="57.2" y1="61.8" x2="60.4" y2="61.8"/>
<line class="st0" x1="29.2" y1="61.8" x2="53.6" y2="61.8"/>
<line class="st0" x1="29.2" y1="20.7" x2="60.4" y2="20.7"/>
<path class="st0" d="M48.8,18.9h-8c-0.4,0-0.8-0.3-0.8-0.8v0c0-0.4,0.3-0.8,0.8-0.8l8,0c0.4,0,0.8,0.3,0.8,0.8v0  C49.6,18.6,49.2,18.9,48.8,18.9z"/>
<g>
	<line class="st0" x1="36.4" y1="51" x2="54.1" y2="51"/>
	<path class="st0" d="M44.8,48.7h-6.5c-1-1.5-3.9-2.4-3.9-2.4H45h0.4H56c0,0-2.9,0.9-3.9,2.4h-6.5H44.8z"/>
	<path class="st0" d="M37,41.5c0,0-0.8,3.3,2.8,3.5C39.8,45,40.6,41.5,37,41.5z"/>
	<path class="st0" d="M41.8,45.4c0,0-0.5-1-0.5-1.8v-0.5c0,0,2.4-0.3,4.9,2.2"/>
	<path class="st0" d="M47.9,45.2c0,0-0.4-2.7,2-2.7c2.4,0,2.6,2.7,2.6,2.7"/>
	<path class="st0" d="M45,43.4c0,0,0-1.5,0.9-1.3c0.9,0.2,1.1-0.1,1.3-0.2c0.3-0.2,0.5,0.1,0.7,0.2c0.2,0.1,0.4,0.3,0.4,1"/>
	<path class="st0" d="M41.7,32.6c0,0-0.7,1.3,0,2s1.4,1.7,0.8,2.5c-0.5,0.7-1.8,2-0.5,3.2"/>
	<path class="st0" d="M48,32.6c0,0-0.8,1.3,0,2c1,0.8,1.3,1.6,0.8,2.5c-0.4,0.7-1.8,2-0.5,3.2"/>
	<path class="st0" d="M44.6,29c0,0,1.7,1.2,0.8,3c-0.9,1.8-0.4,2.6,0.3,3.6c0.7,0.9-0.4,1.8-0.9,2.6c-0.5,0.8,0.5,2.4,0.5,2.4"/>
</g>
<path class="st0" d="M58.4,64.7c0,0-0.3-1.4,0.8-1.7c1.1-0.3,1.7,0.2,2,0.9c0.3,0.7,2.5,5.3,2.5,5.3"/>
<path class="st0" d="M61.9,65.2c0,0-0.3-1.4,0.8-1.7s1.7,0.2,2,0.9c0.4,0.7,2.2,4.1,2.2,4.1"/>
<path class="st0" d="M65.7,66.4c0,0-0.3-1.4,0.9-1.7c1.1-0.3,1.7,0.2,2,0.9c0.4,0.7,2.4,4.8,2.4,4.8l2.1,4.4l1.4,0.9l-4.4,8.6  c0,0-9.1-2-12.1-3.7c-3.5-1.9-8.5-4.3-8.5-4.3s0.2-2.7,2.4-2.4c2.2,0.3,7.3,2.8,7.3,2.8l-6.9-18.1c0,0-1.2-3,2.1-3l6.4,14.6"/>
<line class="st0" x1="73.6" y1="22.3" x2="73.6" y2="28.5"/>
<line class="st0" x1="70.5" y1="25.4" x2="76.6" y2="25.4"/>
<line class="st0" x1="32.7" y1="2.9" x2="32.7" y2="11.7"/>
<line class="st0" x1="28.3" y1="7.3" x2="37.1" y2="7.3"/>
<line class="st0" x1="14.6" y1="28.5" x2="19.1" y2="28.5"/>
<line class="st0" x1="16.8" y1="30.7" x2="16.8" y2="26.2"/>
<polygon class="st0" points="13.4,3.5 15.3,0.7 17.1,3.5 20,4.2 17.9,6.7 18.4,10.2 15.3,8.6 12.2,10.2 12.2,6.6 10.2,4.1 "/>
<polygon class="st0" points="10.5,18.8 11.7,18.6 11.4,19.8 12,20.7 10.8,20.8 10,21.8 9.7,20.6 8.4,20.2 9.4,19.3 9.5,18.1 "/>
<circle class="st0" cx="21" cy="18.1" r="2.5"/>
<circle class="st0" cx="66.5" cy="32.1" r="1.7"/>
<circle class="st0" cx="65.2" cy="21.5" r="0.8"/>
</svg>