<?xml version="1.0" encoding="UTF-8"?>
<!-- Generator: Adobe Illustrator 21.0.0, SVG Export Plug-In . SVG Version: 6.00 Build 0)  -->
<svg version="1.1" id="Layer_1" xmlns="http://www.w3.org/2000/svg" xmlns:xlink="http://www.w3.org/1999/xlink" x="0px" y="0px" viewBox="0 0 85 85" style="enable-background:new 0 0 85 85;" xml:space="preserve">
<style type="text/css">
	.st0{fill:none;stroke:#00B8B5;stroke-linecap:round;stroke-linejoin:round;stroke-miterlimit:10;}
</style>
<g>
	<g>
		<path class="st0" d="M28.3,54.1h30.8c0,0,2.6,0,2.6,2.6s0,17.5,0,17.5s2.8,0.4,2.8,2.8s-1.5,3.2-3.2,3.2c-1.7,0-32.1,0-32.1,0    s-1.7-1.3-1.7-3.4s1.7-1.3,1.7-3c0-1.7-1.7-2.1-1.7-4.3s1.7-2.1,1.7-3.4c0-1.3-0.9-0.9-0.9-4.7c0,0,0-1.3-1.3-1.3    c-0.9,0-1.7-0.9-1.7-3.4C25.3,55,27,54.1,28.3,54.1"/>
		<g>
			<path class="st0" d="M30.6,80.2H18.1c0,0-0.4,0.9,2.1,0.9c0,0,0,3.4,2.1,3.4h26.5"/>
			<path class="st0" d="M59.4,80.2h12.5c0,0,0.4,0.9-2.1,0.9c0,0,0,3.4-2.1,3.4H41.1"/>
		</g>
		<polyline class="st0" points="61.7,60.1 34.3,60.1 34.3,73.4 59.1,73.4   "/>
		<line class="st0" x1="34.3" y1="67.4" x2="45.2" y2="67.4"/>
		<line class="st0" x1="49.7" y1="67.4" x2="57.2" y2="67.4"/>
		<line class="st0" x1="34.3" y1="76.8" x2="41.8" y2="76.8"/>
		<g>
			<path class="st0" d="M43.4,54.1v-9c0,0,1.3-1.7,3,0v9"/>
			<line class="st0" x1="44.9" y1="41.3" x2="44.9" y2="44.4"/>
			<g>
				<path class="st0" d="M43.2,42.2c0,0-3-0.4-3-5.1s4.7-8.6,4.7-8.6"/>
				<path class="st0" d="M46.6,42.2c0,0,3-0.4,3-5.1s-4.7-8.6-4.7-8.6"/>
			</g>
		</g>
	</g>
	<g>
		<g>
			<g>
				<g>
					<g>
						<line class="st0" x1="23.1" y1="23.2" x2="17.7" y2="23.2"/>
						<line class="st0" x1="11" y1="23.2" x2="5.6" y2="23.2"/>
					</g>
				</g>
				<g>
					<g>
						<line class="st0" x1="51.4" y1="23.2" x2="46" y2="23.2"/>
						<line class="st0" x1="39.3" y1="23.2" x2="33.9" y2="23.2"/>
					</g>
				</g>
			</g>
			<g>
				<g>
					<g>
						<g>
							<line class="st0" x1="28.5" y1="28.6" x2="28.5" y2="34"/>
							<line class="st0" x1="28.5" y1="40.7" x2="28.5" y2="46.1"/>
						</g>
					</g>
				</g>
				<g>
					<g>
						<g>
							<line class="st0" x1="28.5" y1="0.4" x2="28.5" y2="5.7"/>
							<line class="st0" x1="28.5" y1="12.5" x2="28.5" y2="17.9"/>
						</g>
					</g>
				</g>
			</g>
		</g>
		<g>
			<g>
				<g>
					<g>
						<g>
							<line class="st0" x1="24.7" y1="27.1" x2="22.8" y2="29"/>
							<line class="st0" x1="19.9" y1="31.8" x2="15.7" y2="36.1"/>
							<line class="st0" x1="14.2" y1="37.5" x2="12.3" y2="39.4"/>
						</g>
					</g>
				</g>
				<g>
					<g>
						<g>
							<line class="st0" x1="44.7" y1="7.1" x2="42.8" y2="9"/>
							<line class="st0" x1="39.9" y1="11.8" x2="35.6" y2="16.1"/>
							<line class="st0" x1="34.2" y1="17.5" x2="32.3" y2="19.4"/>
						</g>
					</g>
				</g>
			</g>
			<g>
				<g>
					<g>
						<g>
							<line class="st0" x1="32.3" y1="27.1" x2="34.2" y2="29"/>
						</g>
					</g>
				</g>
				<g>
					<g>
						<g>
							<line class="st0" x1="12.3" y1="7.1" x2="14.2" y2="9"/>
							<line class="st0" x1="17.1" y1="11.8" x2="21.4" y2="16.1"/>
							<line class="st0" x1="22.8" y1="17.5" x2="24.7" y2="19.4"/>
						</g>
					</g>
				</g>
			</g>
		</g>
	</g>
	<g>
		<g>
			<g>
				<g>
					<g>
						<line class="st0" x1="67.6" y1="39.7" x2="65.6" y2="39.7"/>
						<line class="st0" x1="62.5" y1="39.7" x2="60.5" y2="39.7"/>
					</g>
				</g>
				<g>
					<g>
						<line class="st0" x1="79" y1="39.7" x2="77.1" y2="39.7"/>
						<line class="st0" x1="73.9" y1="39.7" x2="71.9" y2="39.7"/>
					</g>
				</g>
			</g>
			<g>
				<g>
					<g>
						<g>
							<line class="st0" x1="69.8" y1="41.9" x2="69.8" y2="43.8"/>
							<line class="st0" x1="69.8" y1="47" x2="69.8" y2="48.9"/>
						</g>
					</g>
				</g>
				<g>
					<g>
						<g>
							<line class="st0" x1="69.8" y1="30.4" x2="69.8" y2="32.4"/>
							<line class="st0" x1="69.8" y1="35.6" x2="69.8" y2="37.5"/>
						</g>
					</g>
				</g>
			</g>
		</g>
		<g>
			<g>
				<g>
					<g>
						<g>
							<line class="st0" x1="68.2" y1="41.2" x2="66.8" y2="42.6"/>
							<line class="st0" x1="64.6" y1="44.8" x2="63.2" y2="46.2"/>
						</g>
					</g>
				</g>
				<g>
					<g>
						<g>
							<line class="st0" x1="76.3" y1="33.1" x2="74.9" y2="34.5"/>
							<line class="st0" x1="72.7" y1="36.8" x2="71.3" y2="38.1"/>
						</g>
					</g>
				</g>
			</g>
			<g>
				<g>
					<g>
						<g>
							<line class="st0" x1="71.3" y1="41.2" x2="72.7" y2="42.6"/>
							<line class="st0" x1="74.9" y1="44.8" x2="76.3" y2="46.2"/>
						</g>
					</g>
				</g>
				<g>
					<g>
						<g>
							<line class="st0" x1="63.2" y1="33.1" x2="64.6" y2="34.5"/>
							<line class="st0" x1="66.8" y1="36.8" x2="68.2" y2="38.1"/>
						</g>
					</g>
				</g>
			</g>
		</g>
	</g>
</g>
</svg>