<?xml version="1.0" encoding="UTF-8"?>
<!-- Generator: Adobe Illustrator 21.0.0, SVG Export Plug-In . SVG Version: 6.00 Build 0)  -->
<svg version="1.1" id="Layer_1" xmlns="http://www.w3.org/2000/svg" xmlns:xlink="http://www.w3.org/1999/xlink" x="0px" y="0px" viewBox="0 0 85 85" style="enable-background:new 0 0 85 85;" xml:space="preserve">
<style type="text/css">
	.st0{fill:none;stroke:#00B8B5;stroke-linecap:round;stroke-linejoin:round;stroke-miterlimit:10;}
</style>
<g>
	<g>
		<path class="st0" d="M32.5,41.6l-4,26.8c0,0,2.8,1.6,4.8,1.6c2,0,3.1-1.8,5.9-1.8c2.7,0,2.9,2.2,5.2,2.2s3-2.1,5.7-2.1    c2.8,0,3.6,1.6,6.2,1.6s4.3-1.3,4.7-1.7l-4.1-26.7H32.5z"/>
		<line class="st0" x1="38" y1="41.6" x2="37.3" y2="51.7"/>
		<line class="st0" x1="51.5" y1="41.6" x2="52.1" y2="47.7"/>
		<line class="st0" x1="51.5" y1="68.5" x2="50.8" y2="59.2"/>
		<g>
			<line class="st0" x1="17.8" y1="57.7" x2="16.3" y2="71"/>
			<path class="st0" d="M30.1,57.8h-12c0,0-3.5,0.1-3.5-3.5s0-20.5,0-20.5"/>
			<path class="st0" d="M31.6,48.1h-4.7V37.2c0-2.3-1.9-4.2-4.2-4.2s-4.2,1.9-4.2,4.2v13.3c0,0-0.4,3.6,3.7,3.6c4.1,0,8.5,0,8.5,0"/>
			<circle class="st0" cx="22.7" cy="27.4" r="4"/>
		</g>
		<g>
			<line class="st0" x1="71.8" y1="57.7" x2="73.3" y2="71"/>
			<path class="st0" d="M59.5,57.8h12c0,0,3.5,0.1,3.5-3.5s0-20.5,0-20.5"/>
			<path class="st0" d="M58,48.1h4.7V37.2c0-2.3,1.9-4.2,4.2-4.2s4.2,1.9,4.2,4.2v13.3c0,0,0.4,3.6-3.7,3.6c-4.1,0-8.5,0-8.5,0"/>
			<circle class="st0" cx="66.9" cy="27.4" r="4"/>
		</g>
	</g>
	<g>
		<line class="st0" x1="78" y1="25" x2="78" y2="29.8"/>
		<line class="st0" x1="75.6" y1="27.4" x2="80.3" y2="27.4"/>
	</g>
	<polygon class="st0" points="56.4,15.5 57.5,14 58.4,15.5 60,15.8 58.8,17.2 59.1,19.1 57.5,18.2 55.8,19.1 55.8,17.1 54.7,15.8     "/>
	<g>
		<g>
			<line class="st0" x1="4" y1="29.1" x2="4" y2="36"/>
			<line class="st0" x1="0.6" y1="32.6" x2="7.5" y2="32.6"/>
		</g>
		<g>
			<line class="st0" x1="16.1" y1="19.8" x2="19.7" y2="19.8"/>
			<line class="st0" x1="17.9" y1="21.5" x2="17.9" y2="18"/>
		</g>
		<circle class="st0" cx="11.1" cy="27.9" r="1.9"/>
		<circle class="st0" cx="11.1" cy="20" r="1"/>
	</g>
	<circle class="st0" cx="83.2" cy="34.4" r="1.3"/>
	<circle class="st0" cx="77.3" cy="36.7" r="0.7"/>
</g>
</svg>